<svg xmlns="http://www.w3.org/2000/svg" xmlns:xlink="http://www.w3.org/1999/xlink" width="500" zoomAndPan="magnify" viewBox="0 0 375 374.999991" height="500" preserveAspectRatio="xMidYMid meet" version="1.0"><defs><g/><clipPath id="8a6049bcff"><path d="M 0 99.738281 L 119 99.738281 L 119 221 L 0 221 Z M 0 99.738281 " clip-rule="nonzero"/></clipPath><clipPath id="1ee3018a4d"><path d="M 115 148 L 141.75 148 L 141.75 189 L 115 189 Z M 115 148 " clip-rule="nonzero"/></clipPath></defs><g clip-path="url(#8a6049bcff)"><path fill="#dfddcb" d="M 89.222656 99.816406 C 74.777344 99.816406 62.789062 110.332031 60.488281 124.121094 L 56.917969 124.800781 C 52.71875 117.707031 44.988281 112.945312 36.140625 112.945312 C 22.8125 112.945312 12.011719 123.746094 12.011719 137.074219 C 12.011719 148.410156 19.820312 157.910156 30.355469 160.503906 L 30.355469 163.199219 L 25.46875 163.199219 L 25.445312 162.980469 L 19.660156 160.832031 L 15.605469 160.832031 L 22.003906 174.15625 L 24.371094 173.523438 L 25.6875 171.375 L 30.355469 171.375 L 30.355469 201.507812 L 38.089844 201.507812 L 37.191406 208.214844 L 18.78125 211.722656 L 14.816406 209.660156 L 0 212.488281 L 1.03125 220.796875 L 15.910156 217.96875 L 19.351562 214.503906 L 39.363281 210.1875 L 40.785156 201.507812 L 114.230469 201.507812 L 114.230469 151.410156 L 107.785156 151.410156 C 114.25 146.0625 118.371094 137.984375 118.371094 128.945312 C 118.371094 112.851562 105.316406 99.816406 89.222656 99.816406 Z M 63.910156 143.367188 C 65.660156 146.4375 67.949219 149.167969 70.660156 151.410156 L 55.558594 151.410156 C 57.140625 149.269531 58.367188 146.863281 59.175781 144.265625 Z M 105.8125 191.382812 C 107.265625 191.382812 108.441406 192.5625 108.441406 194.015625 C 108.441406 195.46875 107.265625 196.644531 105.8125 196.644531 C 104.359375 196.644531 103.183594 195.46875 103.183594 194.015625 C 103.183594 192.5625 104.359375 191.382812 105.8125 191.382812 Z M 105.8125 191.382812 " fill-opacity="1" fill-rule="nonzero"/></g><path fill="#000000" d="M 88.800781 113.542969 C 80.667969 113.542969 74.074219 120.136719 74.074219 128.269531 C 74.074219 136.402344 80.667969 142.996094 88.800781 142.996094 C 96.9375 142.996094 103.53125 136.402344 103.53125 128.269531 C 103.53125 120.136719 96.9375 113.542969 88.800781 113.542969 Z M 87.394531 117.890625 C 88.714844 117.890625 89.785156 118.949219 89.785156 120.265625 C 89.785156 121.585938 88.714844 122.65625 87.394531 122.65625 C 86.078125 122.65625 85.003906 121.585938 85.003906 120.265625 C 85.003906 118.949219 86.078125 117.890625 87.394531 117.890625 Z M 94.773438 122.363281 C 96.089844 122.363281 97.164062 123.4375 97.164062 124.753906 C 97.164062 126.074219 96.089844 127.144531 94.773438 127.144531 C 93.453125 127.144531 92.382812 126.074219 92.382812 124.753906 C 92.382812 123.4375 93.453125 122.363281 94.773438 122.363281 Z M 81.757812 124.242188 C 83.074219 124.242188 84.136719 125.316406 84.136719 126.632812 C 84.136719 127.953125 83.074219 129.023438 81.757812 129.023438 C 80.4375 129.023438 79.367188 127.953125 79.367188 126.632812 C 79.367188 125.316406 80.4375 124.242188 81.757812 124.242188 Z M 93.902344 130.761719 C 95.222656 130.761719 96.292969 131.824219 96.292969 133.140625 C 96.292969 134.460938 95.222656 135.53125 93.902344 135.53125 C 92.585938 135.53125 91.511719 134.460938 91.511719 133.140625 C 91.511719 131.824219 92.585938 130.761719 93.902344 130.761719 Z M 85.082031 132.207031 C 86.398438 132.207031 87.472656 133.269531 87.472656 134.585938 C 87.472656 135.902344 86.398438 136.976562 85.082031 136.976562 C 83.761719 136.976562 82.691406 135.902344 82.691406 134.585938 C 82.691406 133.269531 83.761719 132.207031 85.082031 132.207031 Z M 85.082031 132.207031 " fill-opacity="1" fill-rule="nonzero"/><path fill="#000000" d="M 36.203125 124.0625 C 29.617188 124.0625 24.28125 129.398438 24.28125 135.984375 C 24.28125 142.570312 29.617188 147.90625 36.203125 147.90625 C 42.785156 147.90625 48.125 142.570312 48.125 135.984375 C 48.125 129.398438 42.785156 124.0625 36.203125 124.0625 Z M 35.0625 127.582031 C 36.128906 127.582031 37 128.4375 37 129.507812 C 37 130.574219 36.132812 131.441406 35.0625 131.441406 C 33.996094 131.441406 33.128906 130.574219 33.128906 129.507812 C 33.128906 128.4375 33.996094 127.582031 35.0625 127.582031 Z M 41.035156 131.203125 C 42.101562 131.203125 42.972656 132.070312 42.972656 133.136719 C 42.972656 134.207031 42.101562 135.074219 41.035156 135.074219 C 39.96875 135.074219 39.101562 134.207031 39.101562 133.136719 C 39.101562 132.070312 39.96875 131.203125 41.035156 131.203125 Z M 30.5 132.726562 C 31.566406 132.726562 32.425781 133.59375 32.425781 134.660156 C 32.425781 135.726562 31.566406 136.59375 30.5 136.59375 C 29.433594 136.59375 28.5625 135.726562 28.5625 134.660156 C 28.5625 133.59375 29.433594 132.726562 30.5 132.726562 Z M 40.332031 138.003906 C 41.398438 138.003906 42.265625 138.859375 42.265625 139.929688 C 42.265625 140.996094 41.398438 141.863281 40.332031 141.863281 C 39.265625 141.863281 38.394531 140.996094 38.394531 139.929688 C 38.394531 138.859375 39.265625 138.003906 40.332031 138.003906 Z M 33.191406 139.171875 C 34.257812 139.171875 35.125 140.03125 35.125 141.097656 C 35.125 142.164062 34.257812 143.03125 33.191406 143.03125 C 32.125 143.03125 31.253906 142.164062 31.253906 141.097656 C 31.253906 140.03125 32.125 139.171875 33.191406 139.171875 Z M 33.191406 139.171875 " fill-opacity="1" fill-rule="nonzero"/><g clip-path="url(#1ee3018a4d)"><path fill="#dfddcb" d="M 141.464844 148.320312 L 126.671875 157.285156 L 115.097656 157.285156 L 115.097656 179.617188 L 126.671875 179.617188 L 141.464844 188.582031 Z M 141.464844 148.320312 " fill-opacity="1" fill-rule="nonzero"/></g><g fill="#000000" fill-opacity="1"><g transform="translate(45.935238, 202.393786)"><g><path d="M 25.84375 -13.65625 L 36.5625 -39.546875 L 48 -39.546875 L 48 0 L 39.171875 0 L 39.171875 -26.21875 L 28.171875 0 L 23.40625 0 L 12.453125 -26.375 L 12.453125 0 L 3.625 0 L 3.625 -39.546875 L 15.171875 -39.546875 Z M 25.84375 -13.65625 "/></g></g></g><g fill="#dfddcb" fill-opacity="1"><g transform="translate(142.795805, 188.677813)"><g><path d="M 32.078125 -16.953125 L 45.390625 -49.09375 L 59.578125 -49.09375 L 59.578125 0 L 48.625 0 L 48.625 -32.546875 L 34.96875 0 L 29.046875 0 L 15.46875 -32.75 L 15.46875 0 L 4.5 0 L 4.5 -49.09375 L 18.828125 -49.09375 Z M 32.078125 -16.953125 "/></g></g></g><g fill="#dfddcb" fill-opacity="1"><g transform="translate(206.866066, 188.677813)"><g><path d="M 26.421875 0.875 C 21.398438 0.875 17.070312 -0.0976562 13.4375 -2.046875 C 9.8125 -3.992188 7.023438 -6.785156 5.078125 -10.421875 C 3.128906 -14.054688 2.15625 -18.359375 2.15625 -23.328125 L 2.15625 -25.75 C 2.15625 -30.769531 3.128906 -35.082031 5.078125 -38.6875 C 7.023438 -42.300781 9.8125 -45.082031 13.4375 -47.03125 C 17.070312 -48.988281 21.398438 -49.96875 26.421875 -49.96875 C 31.453125 -49.96875 35.769531 -48.988281 39.375 -47.03125 C 42.976562 -45.082031 45.753906 -42.300781 47.703125 -38.6875 C 49.660156 -35.082031 50.640625 -30.769531 50.640625 -25.75 L 50.640625 -23.328125 C 50.640625 -18.359375 49.660156 -14.054688 47.703125 -10.421875 C 45.753906 -6.785156 42.976562 -3.992188 39.375 -2.046875 C 35.769531 -0.0976562 31.453125 0.875 26.421875 0.875 Z M 26.421875 -8.875 C 30.328125 -8.875 33.445312 -10.117188 35.78125 -12.609375 C 38.113281 -15.097656 39.28125 -18.738281 39.28125 -23.53125 L 39.28125 -25.5625 C 39.28125 -30.351562 38.125 -33.992188 35.8125 -36.484375 C 33.5 -38.972656 30.367188 -40.21875 26.421875 -40.21875 C 22.484375 -40.21875 19.347656 -38.972656 17.015625 -36.484375 C 14.679688 -33.992188 13.515625 -30.351562 13.515625 -25.5625 L 13.515625 -23.53125 C 13.515625 -18.738281 14.679688 -15.097656 17.015625 -12.609375 C 19.347656 -10.117188 22.484375 -8.875 26.421875 -8.875 Z M 26.421875 -8.875 "/></g></g></g><g fill="#dfddcb" fill-opacity="1"><g transform="translate(259.641668, 188.677813)"><g><path d="M 23.8125 -14.59375 L 35.640625 -49.09375 L 47.34375 -49.09375 L 29.65625 0 L 17.890625 0 L 0 -49.09375 L 11.765625 -49.09375 Z M 23.8125 -14.59375 "/></g></g></g><g fill="#dfddcb" fill-opacity="1"><g transform="translate(306.971637, 188.677813)"><g><path d="M 15.796875 -49.09375 L 15.796875 0 L 4.578125 0 L 4.578125 -49.09375 Z M 15.796875 -49.09375 "/></g></g></g><g fill="#dfddcb" fill-opacity="1"><g transform="translate(327.342351, 188.677813)"><g><path d="M 42.703125 0 L 4.5 0 L 4.5 -49.09375 L 41.5625 -49.09375 L 41.5625 -39.546875 L 15.609375 -39.546875 L 15.609375 -29.59375 L 39.140625 -29.59375 L 39.140625 -20.109375 L 15.609375 -20.109375 L 15.609375 -9.609375 L 42.703125 -9.609375 Z M 42.703125 0 "/></g></g></g><g fill="#dfddcb" fill-opacity="1"><g transform="translate(215.884067, 218.150251)"><g><path d="M 10.5625 -0.875 C 9.632812 -0.289062 8.472656 0 7.078125 0 C 4.984375 0 3.414062 -0.65625 2.375 -1.96875 C 1.320312 -3.269531 0.796875 -5.234375 0.796875 -7.859375 C 0.796875 -10.472656 1.320312 -12.4375 2.375 -13.75 C 3.414062 -15.0625 4.984375 -15.71875 7.078125 -15.71875 C 8.390625 -15.71875 9.5 -15.460938 10.40625 -14.953125 C 11.300781 -14.429688 11.992188 -13.660156 12.484375 -12.640625 L 11.140625 -11.78125 C 10.765625 -12.625 10.238281 -13.253906 9.5625 -13.671875 C 8.894531 -14.085938 8.066406 -14.296875 7.078125 -14.296875 C 5.503906 -14.296875 4.328125 -13.757812 3.546875 -12.6875 C 2.765625 -11.613281 2.375 -10.003906 2.375 -7.859375 C 2.375 -5.710938 2.765625 -4.101562 3.546875 -3.03125 C 4.328125 -1.957031 5.503906 -1.421875 7.078125 -1.421875 C 8.109375 -1.421875 8.972656 -1.648438 9.671875 -2.109375 C 10.367188 -2.578125 10.890625 -3.273438 11.234375 -4.203125 L 12.671875 -3.484375 C 12.203125 -2.328125 11.5 -1.457031 10.5625 -0.875 Z M 10.5625 -0.875 "/></g></g></g><g fill="#dfddcb" fill-opacity="1"><g transform="translate(241.5554, 218.150251)"><g><path d="M 3.25 -7.265625 L 3.25 0 L 1.6875 0 L 1.6875 -15.71875 L 3.25 -15.71875 L 3.25 -8.828125 L 11.171875 -8.828125 L 11.171875 -15.71875 L 12.75 -15.71875 L 12.75 0 L 11.171875 0 L 11.171875 -7.265625 Z M 3.25 -7.265625 "/></g></g></g><g fill="#dfddcb" fill-opacity="1"><g transform="translate(268.535702, 218.150251)"><g><path d="M 3.25 -7.578125 L 3.25 -1.578125 L 12.578125 -1.578125 L 12.578125 0 L 1.6875 0 L 1.6875 -15.71875 L 12.375 -15.71875 L 12.375 -14.140625 L 3.25 -14.140625 L 3.25 -9.140625 L 12.0625 -9.140625 L 12.0625 -7.578125 Z M 3.25 -7.578125 "/></g></g></g><g fill="#dfddcb" fill-opacity="1"><g transform="translate(294.468829, 218.150251)"><g><path d="M 10.5625 -0.875 C 9.632812 -0.289062 8.472656 0 7.078125 0 C 4.984375 0 3.414062 -0.65625 2.375 -1.96875 C 1.320312 -3.269531 0.796875 -5.234375 0.796875 -7.859375 C 0.796875 -10.472656 1.320312 -12.4375 2.375 -13.75 C 3.414062 -15.0625 4.984375 -15.71875 7.078125 -15.71875 C 8.390625 -15.71875 9.5 -15.460938 10.40625 -14.953125 C 11.300781 -14.429688 11.992188 -13.660156 12.484375 -12.640625 L 11.140625 -11.78125 C 10.765625 -12.625 10.238281 -13.253906 9.5625 -13.671875 C 8.894531 -14.085938 8.066406 -14.296875 7.078125 -14.296875 C 5.503906 -14.296875 4.328125 -13.757812 3.546875 -12.6875 C 2.765625 -11.613281 2.375 -10.003906 2.375 -7.859375 C 2.375 -5.710938 2.765625 -4.101562 3.546875 -3.03125 C 4.328125 -1.957031 5.503906 -1.421875 7.078125 -1.421875 C 8.109375 -1.421875 8.972656 -1.648438 9.671875 -2.109375 C 10.367188 -2.578125 10.890625 -3.273438 11.234375 -4.203125 L 12.671875 -3.484375 C 12.203125 -2.328125 11.5 -1.457031 10.5625 -0.875 Z M 10.5625 -0.875 "/></g></g></g><g fill="#dfddcb" fill-opacity="1"><g transform="translate(320.140161, 218.150251)"><g><path d="M 10.859375 0 L 5.21875 -8.4375 L 3.25 -6.5625 L 3.25 0 L 1.6875 0 L 1.6875 -15.71875 L 3.25 -15.71875 L 3.25 -8.71875 L 10.515625 -15.71875 L 12.796875 -15.71875 L 6.375 -9.546875 L 12.734375 0 Z M 10.859375 0 "/></g></g></g></svg>