<svg xmlns="http://www.w3.org/2000/svg" xmlns:xlink="http://www.w3.org/1999/xlink" width="500" zoomAndPan="magnify" viewBox="0 0 375 374.999991" height="500" preserveAspectRatio="xMidYMid meet" version="1.0"><defs><g/><clipPath id="a22853e04c"><path d="M 56.261719 149.703125 L 128 149.703125 L 128 222.453125 L 56.261719 222.453125 Z M 56.261719 149.703125 " clip-rule="nonzero"/></clipPath><clipPath id="7b38f640ef"><path d="M 125 178 L 141.761719 178 L 141.761719 204 L 125 204 Z M 125 178 " clip-rule="nonzero"/></clipPath></defs><rect x="-37.5" width="450" fill="#ffffff" y="-37.499999" height="449.999989" fill-opacity="1"/><rect x="-37.5" width="450" fill="#4d0e02" y="-37.499999" height="449.999989" fill-opacity="1"/><g clip-path="url(#a22853e04c)"><path fill="#dfddcb" d="M 109.984375 149.75 C 101.285156 149.75 94.066406 156.082031 92.683594 164.386719 L 90.53125 164.792969 C 88.003906 160.523438 83.347656 157.65625 78.023438 157.65625 C 69.996094 157.65625 63.492188 164.160156 63.492188 172.183594 C 63.492188 179.007812 68.195312 184.730469 74.539062 186.289062 L 74.539062 187.914062 L 71.597656 187.914062 L 71.582031 187.78125 L 68.097656 186.488281 L 65.65625 186.488281 L 69.511719 194.511719 L 70.9375 194.128906 L 71.726562 192.835938 L 74.539062 192.835938 L 74.539062 210.980469 L 79.195312 210.980469 L 78.65625 215.019531 L 67.570312 217.128906 L 65.183594 215.890625 L 56.261719 217.589844 L 56.882812 222.59375 L 65.84375 220.890625 L 67.914062 218.804688 L 79.960938 216.207031 L 80.820312 210.980469 L 125.039062 210.980469 L 125.039062 180.8125 L 121.160156 180.8125 C 125.050781 177.597656 127.535156 172.734375 127.535156 167.289062 C 127.535156 157.597656 119.671875 149.75 109.984375 149.75 Z M 94.742188 175.972656 C 95.796875 177.820312 97.175781 179.464844 98.804688 180.816406 L 89.714844 180.816406 C 90.664062 179.527344 91.40625 178.078125 91.890625 176.511719 Z M 119.972656 204.882812 C 120.847656 204.882812 121.554688 205.59375 121.554688 206.46875 C 121.554688 207.34375 120.847656 208.050781 119.972656 208.050781 C 119.097656 208.050781 118.386719 207.34375 118.386719 206.46875 C 118.386719 205.59375 119.097656 204.882812 119.972656 204.882812 Z M 119.972656 204.882812 " fill-opacity="1" fill-rule="nonzero"/></g><path fill="#000000" d="M 109.730469 158.015625 C 104.832031 158.015625 100.863281 161.984375 100.863281 166.882812 C 100.863281 171.78125 104.832031 175.75 109.730469 175.75 C 114.628906 175.75 118.597656 171.78125 118.597656 166.882812 C 118.597656 161.984375 114.628906 158.015625 109.730469 158.015625 Z M 108.882812 160.632812 C 109.675781 160.632812 110.324219 161.269531 110.324219 162.0625 C 110.324219 162.859375 109.675781 163.503906 108.882812 163.503906 C 108.089844 163.503906 107.445312 162.859375 107.445312 162.0625 C 107.445312 161.269531 108.089844 160.632812 108.882812 160.632812 Z M 113.324219 163.328125 C 114.117188 163.328125 114.765625 163.972656 114.765625 164.765625 C 114.765625 165.558594 114.117188 166.207031 113.324219 166.207031 C 112.53125 166.207031 111.886719 165.558594 111.886719 164.765625 C 111.886719 163.972656 112.53125 163.328125 113.324219 163.328125 Z M 105.488281 164.457031 C 106.28125 164.457031 106.921875 165.105469 106.921875 165.898438 C 106.921875 166.691406 106.28125 167.335938 105.488281 167.335938 C 104.695312 167.335938 104.046875 166.691406 104.046875 165.898438 C 104.046875 165.105469 104.695312 164.457031 105.488281 164.457031 Z M 112.800781 168.382812 C 113.59375 168.382812 114.242188 169.023438 114.242188 169.816406 C 114.242188 170.609375 113.59375 171.253906 112.800781 171.253906 C 112.007812 171.253906 111.363281 170.609375 111.363281 169.816406 C 111.363281 169.023438 112.007812 168.382812 112.800781 168.382812 Z M 107.488281 169.253906 C 108.285156 169.253906 108.929688 169.890625 108.929688 170.683594 C 108.929688 171.480469 108.285156 172.125 107.488281 172.125 C 106.695312 172.125 106.050781 171.480469 106.050781 170.683594 C 106.050781 169.890625 106.695312 169.253906 107.488281 169.253906 Z M 107.488281 169.253906 " fill-opacity="1" fill-rule="nonzero"/><path fill="#000000" d="M 78.058594 164.347656 C 74.09375 164.347656 70.878906 167.5625 70.878906 171.527344 C 70.878906 175.492188 74.09375 178.707031 78.058594 178.707031 C 82.023438 178.707031 85.238281 175.492188 85.238281 171.527344 C 85.238281 167.5625 82.023438 164.347656 78.058594 164.347656 Z M 77.375 166.46875 C 78.015625 166.46875 78.539062 166.984375 78.539062 167.625 C 78.539062 168.269531 78.015625 168.792969 77.375 168.792969 C 76.730469 168.792969 76.207031 168.269531 76.207031 167.625 C 76.207031 166.984375 76.730469 166.46875 77.375 166.46875 Z M 80.96875 168.648438 C 81.613281 168.648438 82.132812 169.171875 82.132812 169.8125 C 82.132812 170.457031 81.613281 170.980469 80.96875 170.980469 C 80.328125 170.980469 79.804688 170.457031 79.804688 169.8125 C 79.804688 169.171875 80.328125 168.648438 80.96875 168.648438 Z M 74.625 169.566406 C 75.269531 169.566406 75.785156 170.085938 75.785156 170.730469 C 75.785156 171.371094 75.269531 171.894531 74.625 171.894531 C 73.984375 171.894531 73.460938 171.371094 73.460938 170.730469 C 73.460938 170.085938 73.984375 169.566406 74.625 169.566406 Z M 80.546875 172.742188 C 81.1875 172.742188 81.710938 173.257812 81.710938 173.902344 C 81.710938 174.542969 81.1875 175.066406 80.546875 175.066406 C 79.902344 175.066406 79.378906 174.542969 79.378906 173.902344 C 79.378906 173.257812 79.902344 172.742188 80.546875 172.742188 Z M 76.246094 173.445312 C 76.886719 173.445312 77.410156 173.964844 77.410156 174.605469 C 77.410156 175.25 76.886719 175.769531 76.246094 175.769531 C 75.601562 175.769531 75.082031 175.25 75.082031 174.605469 C 75.082031 173.964844 75.601562 173.445312 76.246094 173.445312 Z M 76.246094 173.445312 " fill-opacity="1" fill-rule="nonzero"/><g clip-path="url(#7b38f640ef)"><path fill="#dfddcb" d="M 141.4375 178.957031 L 132.53125 184.351562 L 125.5625 184.351562 L 125.5625 197.800781 L 132.53125 197.800781 L 141.4375 203.195312 Z M 141.4375 178.957031 " fill-opacity="1" fill-rule="nonzero"/></g><g fill="#000000" fill-opacity="1"><g transform="translate(83.917506, 211.507854)"><g><path d="M 15.5625 -8.21875 L 22.015625 -23.8125 L 28.90625 -23.8125 L 28.90625 0 L 23.59375 0 L 23.59375 -15.796875 L 16.96875 0 L 14.09375 0 L 7.5 -15.890625 L 7.5 0 L 2.1875 0 L 2.1875 -23.8125 L 9.140625 -23.8125 Z M 15.5625 -8.21875 "/></g></g></g><g fill="#dfddcb" fill-opacity="1"><g transform="translate(142.233319, 203.250015)"><g><path d="M 19.3125 -10.203125 L 27.328125 -29.546875 L 35.875 -29.546875 L 35.875 0 L 29.265625 0 L 29.265625 -19.59375 L 21.046875 0 L 17.484375 0 L 9.3125 -19.71875 L 9.3125 0 L 2.71875 0 L 2.71875 -29.546875 L 11.328125 -29.546875 Z M 19.3125 -10.203125 "/></g></g></g><g fill="#dfddcb" fill-opacity="1"><g transform="translate(180.807425, 203.250015)"><g><path d="M 15.90625 0.53125 C 12.882812 0.53125 10.28125 -0.0546875 8.09375 -1.234375 C 5.90625 -2.410156 4.222656 -4.085938 3.046875 -6.265625 C 1.878906 -8.453125 1.296875 -11.046875 1.296875 -14.046875 L 1.296875 -15.5 C 1.296875 -18.53125 1.878906 -21.128906 3.046875 -23.296875 C 4.222656 -25.472656 5.90625 -27.144531 8.09375 -28.3125 C 10.28125 -29.488281 12.882812 -30.078125 15.90625 -30.078125 C 18.925781 -30.078125 21.523438 -29.488281 23.703125 -28.3125 C 25.878906 -27.144531 27.550781 -25.472656 28.71875 -23.296875 C 29.894531 -21.128906 30.484375 -18.53125 30.484375 -15.5 L 30.484375 -14.046875 C 30.484375 -11.046875 29.894531 -8.453125 28.71875 -6.265625 C 27.550781 -4.085938 25.878906 -2.410156 23.703125 -1.234375 C 21.523438 -0.0546875 18.925781 0.53125 15.90625 0.53125 Z M 15.90625 -5.34375 C 18.257812 -5.34375 20.132812 -6.09375 21.53125 -7.59375 C 22.9375 -9.09375 23.640625 -11.285156 23.640625 -14.171875 L 23.640625 -15.390625 C 23.640625 -18.273438 22.941406 -20.460938 21.546875 -21.953125 C 20.160156 -23.453125 18.28125 -24.203125 15.90625 -24.203125 C 13.53125 -24.203125 11.640625 -23.453125 10.234375 -21.953125 C 8.835938 -20.460938 8.140625 -18.273438 8.140625 -15.390625 L 8.140625 -14.171875 C 8.140625 -11.285156 8.835938 -9.09375 10.234375 -7.59375 C 11.640625 -6.09375 13.53125 -5.34375 15.90625 -5.34375 Z M 15.90625 -5.34375 "/></g></g></g><g fill="#dfddcb" fill-opacity="1"><g transform="translate(212.581474, 203.250015)"><g><path d="M 14.328125 -8.78125 L 21.453125 -29.546875 L 28.5 -29.546875 L 17.859375 0 L 10.765625 0 L 0 -29.546875 L 7.078125 -29.546875 Z M 14.328125 -8.78125 "/></g></g></g><g fill="#dfddcb" fill-opacity="1"><g transform="translate(241.076929, 203.250015)"><g><path d="M 9.515625 -29.546875 L 9.515625 0 L 2.75 0 L 2.75 -29.546875 Z M 9.515625 -29.546875 "/></g></g></g><g fill="#dfddcb" fill-opacity="1"><g transform="translate(253.341309, 203.250015)"><g><path d="M 25.703125 0 L 2.71875 0 L 2.71875 -29.546875 L 25.015625 -29.546875 L 25.015625 -23.8125 L 9.390625 -23.8125 L 9.390625 -17.8125 L 23.5625 -17.8125 L 23.5625 -12.109375 L 9.390625 -12.109375 L 9.390625 -5.796875 L 25.703125 -5.796875 Z M 25.703125 0 "/></g></g></g><g fill="#dfddcb" fill-opacity="1"><g transform="translate(186.236793, 220.994179)"><g><path d="M 6.359375 -0.53125 C 5.804688 -0.175781 5.109375 0 4.265625 0 C 3.003906 0 2.054688 -0.394531 1.421875 -1.1875 C 0.796875 -1.96875 0.484375 -3.148438 0.484375 -4.734375 C 0.484375 -6.304688 0.796875 -7.488281 1.421875 -8.28125 C 2.054688 -9.070312 3.003906 -9.46875 4.265625 -9.46875 C 5.054688 -9.46875 5.722656 -9.3125 6.265625 -9 C 6.804688 -8.6875 7.222656 -8.222656 7.515625 -7.609375 L 6.703125 -7.09375 C 6.484375 -7.601562 6.171875 -7.984375 5.765625 -8.234375 C 5.359375 -8.484375 4.859375 -8.609375 4.265625 -8.609375 C 3.316406 -8.609375 2.609375 -8.285156 2.140625 -7.640625 C 1.660156 -6.992188 1.421875 -6.023438 1.421875 -4.734375 C 1.421875 -3.441406 1.660156 -2.472656 2.140625 -1.828125 C 2.609375 -1.179688 3.316406 -0.859375 4.265625 -0.859375 C 4.890625 -0.859375 5.410156 -1 5.828125 -1.28125 C 6.242188 -1.550781 6.554688 -1.96875 6.765625 -2.53125 L 7.625 -2.09375 C 7.351562 -1.394531 6.929688 -0.875 6.359375 -0.53125 Z M 6.359375 -0.53125 "/></g></g></g><g fill="#dfddcb" fill-opacity="1"><g transform="translate(201.692459, 220.994179)"><g><path d="M 1.96875 -4.375 L 1.96875 0 L 1.015625 0 L 1.015625 -9.46875 L 1.96875 -9.46875 L 1.96875 -5.3125 L 6.734375 -5.3125 L 6.734375 -9.46875 L 7.671875 -9.46875 L 7.671875 0 L 6.734375 0 L 6.734375 -4.375 Z M 1.96875 -4.375 "/></g></g></g><g fill="#dfddcb" fill-opacity="1"><g transform="translate(217.936203, 220.994179)"><g><path d="M 1.96875 -4.5625 L 1.96875 -0.953125 L 7.578125 -0.953125 L 7.578125 0 L 1.015625 0 L 1.015625 -9.46875 L 7.453125 -9.46875 L 7.453125 -8.515625 L 1.96875 -8.515625 L 1.96875 -5.515625 L 7.265625 -5.515625 L 7.265625 -4.5625 Z M 1.96875 -4.5625 "/></g></g></g><g fill="#dfddcb" fill-opacity="1"><g transform="translate(233.549485, 220.994179)"><g><path d="M 6.359375 -0.53125 C 5.804688 -0.175781 5.109375 0 4.265625 0 C 3.003906 0 2.054688 -0.394531 1.421875 -1.1875 C 0.796875 -1.96875 0.484375 -3.148438 0.484375 -4.734375 C 0.484375 -6.304688 0.796875 -7.488281 1.421875 -8.28125 C 2.054688 -9.070312 3.003906 -9.46875 4.265625 -9.46875 C 5.054688 -9.46875 5.722656 -9.3125 6.265625 -9 C 6.804688 -8.6875 7.222656 -8.222656 7.515625 -7.609375 L 6.703125 -7.09375 C 6.484375 -7.601562 6.171875 -7.984375 5.765625 -8.234375 C 5.359375 -8.484375 4.859375 -8.609375 4.265625 -8.609375 C 3.316406 -8.609375 2.609375 -8.285156 2.140625 -7.640625 C 1.660156 -6.992188 1.421875 -6.023438 1.421875 -4.734375 C 1.421875 -3.441406 1.660156 -2.472656 2.140625 -1.828125 C 2.609375 -1.179688 3.316406 -0.859375 4.265625 -0.859375 C 4.890625 -0.859375 5.410156 -1 5.828125 -1.28125 C 6.242188 -1.550781 6.554688 -1.96875 6.765625 -2.53125 L 7.625 -2.09375 C 7.351562 -1.394531 6.929688 -0.875 6.359375 -0.53125 Z M 6.359375 -0.53125 "/></g></g></g><g fill="#dfddcb" fill-opacity="1"><g transform="translate(249.005152, 220.994179)"><g><path d="M 6.53125 0 L 3.140625 -5.078125 L 1.96875 -3.953125 L 1.96875 0 L 1.015625 0 L 1.015625 -9.46875 L 1.96875 -9.46875 L 1.96875 -5.25 L 6.328125 -9.46875 L 7.703125 -9.46875 L 3.84375 -5.75 L 7.671875 0 Z M 6.53125 0 "/></g></g></g></svg>